<svg width="25" height="25" viewBox="0 0 25 25" fill="none" xmlns="http://www.w3.org/2000/svg">
<g clip-path="url(#clip0_4310_4315)">
<path d="M7.29175 18.7502C6.14591 18.7502 5.21883 19.6877 5.21883 20.8335C5.21883 21.9793 6.14591 22.9168 7.29175 22.9168C8.43758 22.9168 9.37508 21.9793 9.37508 20.8335C9.37508 19.6877 8.43758 18.7502 7.29175 18.7502ZM1.04175 2.0835V4.16683H3.12508L6.87508 12.0731L5.46883 14.6252C5.30216 14.9168 5.20841 15.2606 5.20841 15.6252C5.20841 16.771 6.14591 17.7085 7.29175 17.7085H19.7917V15.6252H7.72925C7.58341 15.6252 7.46883 15.5106 7.46883 15.3647L7.50008 15.2397L8.43758 13.5418H16.198C16.9792 13.5418 17.6667 13.1147 18.0209 12.4689L21.7501 5.7085C21.8334 5.56266 21.8751 5.38558 21.8751 5.2085C21.8751 4.63558 21.4063 4.16683 20.8334 4.16683H5.42716L4.448 2.0835H1.04175ZM17.7084 18.7502C16.5626 18.7502 15.6355 19.6877 15.6355 20.8335C15.6355 21.9793 16.5626 22.9168 17.7084 22.9168C18.8542 22.9168 19.7917 21.9793 19.7917 20.8335C19.7917 19.6877 18.8542 18.7502 17.7084 18.7502Z" fill="#A8FF00"/>
</g>
<defs>
<clipPath id="clip0_4310_4315">
<rect width="25" height="25" fill="white"/>
</clipPath>
</defs>
</svg>
