<svg xmlns="http://www.w3.org/2000/svg" width="340" height="391" fill="none" viewBox="0 0 340 391">
  <rect width="302.1" height="353.59" x="19" y="14.727" fill="url(#a)" rx="18.31"/>
  <path stroke="#667080" stroke-linecap="round" stroke-linejoin="round" stroke-width="2" d="M177 181.727h-14a2 2 0 0 0-2 2v14a2 2 0 0 0 2 2h14a2 2 0 0 0 2-2v-14a2 2 0 0 0-2-2Z"/>
  <path stroke="#667080" stroke-linecap="round" stroke-linejoin="round" stroke-width="2" d="M166.5 188.727a1.5 1.5 0 1 0 0-3 1.5 1.5 0 0 0 0 3Zm12.5 5-5-5-11 11"/>
  <g filter="url(#b)">
    <rect width="302.097" height="353.591" x="19" y="14.727" fill="#fff" fill-opacity=".4" rx="18.309" shape-rendering="crispEdges"/>
  </g>
  <g filter="url(#c)">
    <path fill="#373737" d="M51.203 294.39v1.749h-6.425v-1.749h6.425Zm-5.81-11.048v12.797h-2.206v-12.797h2.207Zm17.14 6.047v.703c0 .967-.127 1.834-.379 2.602-.252.767-.612 1.421-1.08 1.96a4.646 4.646 0 0 1-1.67 1.239c-.651.281-1.372.422-2.163.422a5.373 5.373 0 0 1-2.153-.422 4.836 4.836 0 0 1-1.679-1.239c-.474-.539-.844-1.193-1.107-1.96-.258-.768-.387-1.635-.387-2.602v-.703c0-.967.129-1.831.387-2.593.258-.767.62-1.421 1.09-1.96a4.69 4.69 0 0 1 1.678-1.239 5.276 5.276 0 0 1 2.154-.431c.79 0 1.511.144 2.162.431.65.281 1.21.694 1.678 1.239.47.539.83 1.193 1.081 1.96.258.762.387 1.626.387 2.593Zm-2.207.703v-.721c0-.715-.07-1.344-.21-1.889-.136-.551-.338-1.011-.607-1.38a2.54 2.54 0 0 0-.976-.844 2.893 2.893 0 0 0-1.31-.29c-.486 0-.92.097-1.3.29a2.632 2.632 0 0 0-.976.844c-.263.369-.466.829-.606 1.38-.14.545-.211 1.174-.211 1.889v.721c0 .715.07 1.348.21 1.898.141.551.346 1.017.616 1.398.275.375.604.659.984.852a2.9 2.9 0 0 0 1.301.282c.492 0 .929-.094 1.31-.282.38-.193.703-.477.967-.852.263-.381.462-.847.597-1.398.14-.55.211-1.183.211-1.898Zm4.412-6.75h4.527c.972 0 1.801.147 2.487.439.686.293 1.21.727 1.573 1.301.37.569.554 1.272.554 2.11 0 .638-.117 1.201-.352 1.687a3.436 3.436 0 0 1-.993 1.231 4.79 4.79 0 0 1-1.53.764l-.667.325h-4.07l-.017-1.749h3.05c.527 0 .967-.093 1.318-.281a1.88 1.88 0 0 0 .791-.764 2.25 2.25 0 0 0 .273-1.108c0-.445-.088-.832-.264-1.16a1.7 1.7 0 0 0-.791-.765c-.358-.181-.812-.272-1.362-.272h-2.32v11.039h-2.207v-12.797Zm7.304 12.797-3.006-5.748 2.312-.009 3.05 5.643v.114h-2.356Zm12.41-1.749v1.749h-6.794v-1.749h6.794Zm-6.17-11.048v12.797h-2.206v-12.797h2.206Zm5.282 5.344v1.722h-5.906v-1.722h5.906Zm.844-5.344v1.758h-6.75v-1.758h6.75Zm2.742 0h1.97l3.7 9.87 3.69-9.87h1.97l-4.887 12.797h-1.565l-4.878-12.797Zm-.896 0h1.872l.325 8.543v4.254h-2.197v-12.797Zm11.25 0h1.88v12.797H97.18v-4.254l.325-8.543Zm11.338 0v12.797h-2.206v-12.797h2.206Zm7.602 8.024h-3.331v-1.749h3.331c.58 0 1.049-.093 1.407-.281.357-.187.618-.445.782-.773.17-.334.255-.715.255-1.143 0-.404-.085-.782-.255-1.134a1.947 1.947 0 0 0-.782-.861c-.358-.217-.827-.325-1.407-.325h-2.654v11.039h-2.206v-12.797h4.86c.991 0 1.831.176 2.523.527.697.346 1.227.827 1.591 1.442.363.609.545 1.306.545 2.092 0 .826-.182 1.535-.545 2.127-.364.591-.894 1.045-1.591 1.362-.692.316-1.532.474-2.523.474Zm13.368 1.477a1.88 1.88 0 0 0-.123-.703 1.366 1.366 0 0 0-.413-.563c-.199-.17-.48-.334-.843-.492a11.301 11.301 0 0 0-1.371-.501 14.996 14.996 0 0 1-1.688-.624 6.431 6.431 0 0 1-1.336-.808 3.459 3.459 0 0 1-.888-1.064c-.211-.404-.316-.87-.316-1.397 0-.522.108-.996.325-1.424.223-.428.536-.797.941-1.108.41-.316.893-.559 1.45-.729a6.099 6.099 0 0 1 1.846-.264c.949 0 1.766.176 2.452.528.691.351 1.221.823 1.59 1.415.375.591.563 1.245.563 1.96h-2.189c0-.422-.09-.794-.272-1.117a1.843 1.843 0 0 0-.809-.773c-.357-.188-.811-.281-1.362-.281-.521 0-.955.079-1.301.237-.345.158-.603.372-.773.642-.17.269-.255.574-.255.914 0 .24.056.46.167.659.111.193.281.375.51.545.228.164.515.319.861.466.346.146.753.287 1.222.421.709.211 1.327.446 1.854.704.528.252.967.539 1.319.861.351.322.615.688.791 1.099.175.404.263.864.263 1.379a3.21 3.21 0 0 1-.325 1.459 3.153 3.153 0 0 1-.931 1.099c-.399.299-.879.53-1.442.694a6.78 6.78 0 0 1-1.863.238 6.853 6.853 0 0 1-1.82-.246 5.38 5.38 0 0 1-1.617-.747 3.865 3.865 0 0 1-1.16-1.266c-.287-.51-.431-1.105-.431-1.784h2.207c0 .416.07.77.21 1.063.147.293.349.533.607.721.258.182.557.316.896.404a4.48 4.48 0 0 0 1.108.132c.515 0 .946-.073 1.292-.22.351-.146.615-.351.791-.615.176-.264.263-.568.263-.914Zm11.347-9.501h2.197v8.552c0 .972-.21 1.787-.632 2.443a3.978 3.978 0 0 1-1.723 1.486c-.721.328-1.526.492-2.417.492-.92 0-1.74-.164-2.461-.492a3.93 3.93 0 0 1-1.705-1.486c-.41-.656-.615-1.471-.615-2.443v-8.552H136v8.552c0 .615.105 1.122.316 1.52.211.393.51.683.897.87.387.188.844.282 1.371.282s.981-.094 1.362-.282c.387-.187.686-.477.897-.87.211-.398.316-.905.316-1.52v-8.552Zm5.493 0h1.969l3.7 9.87 3.692-9.87h1.968l-4.886 12.797h-1.565l-4.878-12.797Zm-.896 0h1.872l.325 8.543v4.254h-2.197v-12.797Zm11.25 0h1.881v12.797h-2.206v-4.254l.325-8.543Zm12.7 12.797h-2.733l.017-1.749h2.716c.791 0 1.453-.173 1.986-.519.539-.345.944-.84 1.213-1.485.276-.645.413-1.412.413-2.303v-.694c0-.691-.079-1.304-.237-1.837a3.614 3.614 0 0 0-.685-1.345 2.877 2.877 0 0 0-1.108-.826c-.434-.187-.934-.281-1.503-.281h-2.865v-1.758h2.865c.85 0 1.626.144 2.329.431.703.281 1.31.688 1.82 1.221a5.437 5.437 0 0 1 1.186 1.916c.276.745.413 1.577.413 2.496v.677c0 .92-.137 1.752-.413 2.496a5.429 5.429 0 0 1-1.186 1.916 5.314 5.314 0 0 1-1.846 1.222c-.709.281-1.503.422-2.382.422Zm-1.512-12.797v12.797h-2.206v-12.797h2.206Zm19.758 6.047v.703c0 .967-.126 1.834-.378 2.602-.252.767-.612 1.421-1.081 1.96a4.643 4.643 0 0 1-1.67 1.239c-.65.281-1.371.422-2.162.422a5.37 5.37 0 0 1-2.153-.422 4.836 4.836 0 0 1-1.679-1.239c-.475-.539-.844-1.193-1.107-1.96-.258-.768-.387-1.635-.387-2.602v-.703c0-.967.129-1.831.387-2.593.257-.767.621-1.421 1.09-1.96a4.687 4.687 0 0 1 1.678-1.239 5.278 5.278 0 0 1 2.154-.431c.791 0 1.511.144 2.162.431.65.281 1.21.694 1.678 1.239.469.539.829 1.193 1.081 1.96.258.762.387 1.626.387 2.593Zm-2.206.703v-.721c0-.715-.07-1.344-.211-1.889-.135-.551-.337-1.011-.606-1.38a2.542 2.542 0 0 0-.976-.844 2.892 2.892 0 0 0-1.309-.29c-.487 0-.92.097-1.301.29a2.632 2.632 0 0 0-.976.844c-.263.369-.466.829-.606 1.38-.141.545-.211 1.174-.211 1.889v.721c0 .715.07 1.348.211 1.898.14.551.345 1.017.615 1.398.275.375.603.659.984.852.381.188.815.282 1.301.282.492 0 .929-.094 1.31-.282.381-.193.703-.477.967-.852.263-.381.462-.847.597-1.398.141-.55.211-1.183.211-1.898Zm12.428 4.298v1.749h-6.425v-1.749h6.425Zm-5.81-11.048v12.797h-2.206v-12.797h2.206Zm17.139 6.047v.703c0 .967-.126 1.834-.378 2.602-.252.767-.612 1.421-1.081 1.96a4.652 4.652 0 0 1-1.67 1.239c-.65.281-1.371.422-2.162.422a5.37 5.37 0 0 1-2.153-.422 4.827 4.827 0 0 1-1.679-1.239c-.475-.539-.844-1.193-1.108-1.96-.257-.768-.386-1.635-.386-2.602v-.703c0-.967.129-1.831.386-2.593.258-.767.622-1.421 1.09-1.96a4.69 4.69 0 0 1 1.679-1.239 5.273 5.273 0 0 1 2.153-.431c.791 0 1.512.144 2.162.431.651.281 1.21.694 1.679 1.239.469.539.829 1.193 1.081 1.96.258.762.387 1.626.387 2.593Zm-2.206.703v-.721c0-.715-.07-1.344-.211-1.889-.135-.551-.337-1.011-.607-1.38a2.532 2.532 0 0 0-.975-.844 2.893 2.893 0 0 0-1.31-.29c-.486 0-.92.097-1.3.29a2.632 2.632 0 0 0-.976.844c-.264.369-.466.829-.606 1.38-.141.545-.211 1.174-.211 1.889v.721c0 .715.07 1.348.211 1.898.14.551.345 1.017.615 1.398.275.375.603.659.984.852.381.188.815.282 1.301.282.492 0 .929-.094 1.309-.282a2.62 2.62 0 0 0 .967-.852c.264-.381.463-.847.598-1.398.141-.55.211-1.183.211-1.898Zm4.412-6.75h4.526c.973 0 1.802.147 2.488.439.685.293 1.21.727 1.573 1.301.369.569.554 1.272.554 2.11 0 .638-.118 1.201-.352 1.687a3.43 3.43 0 0 1-.993 1.231 4.798 4.798 0 0 1-1.529.764l-.668.325h-4.07l-.017-1.749h3.05c.527 0 .966-.093 1.318-.281.351-.187.615-.442.791-.764.182-.329.272-.698.272-1.108 0-.445-.088-.832-.263-1.16a1.702 1.702 0 0 0-.791-.765c-.358-.181-.812-.272-1.363-.272h-2.32v11.039h-2.206v-12.797Zm7.304 12.797-3.006-5.748 2.311-.009 3.05 5.643v.114h-2.355Z"/>
  </g>
  <path fill="#6BFEED" d="M48.162 318.329v2.558h-1.397v-2.558h1.397Zm-.176 14.353v2.373H46.59v-2.373h1.397Zm.59-2.936c0-.322-.05-.589-.15-.799a1.436 1.436 0 0 0-.484-.554 4.86 4.86 0 0 0-.887-.475 18.498 18.498 0 0 1-2.066-.975c-.591-.334-1.057-.75-1.397-1.248-.334-.498-.501-1.146-.501-1.943 0-.726.178-1.359.536-1.898a3.56 3.56 0 0 1 1.494-1.248c.639-.299 1.374-.449 2.206-.449.633 0 1.21.094 1.732.282.521.187.972.46 1.353.817.381.352.674.785.879 1.301.205.51.308 1.09.308 1.74h-2.962a3.06 3.06 0 0 0-.106-.861 1.575 1.575 0 0 0-.281-.589 1.117 1.117 0 0 0-.43-.334 1.26 1.26 0 0 0-.537-.114c-.293 0-.53.064-.712.193a1.053 1.053 0 0 0-.395.492 1.834 1.834 0 0 0-.123.686c0 .263.044.495.132.694.093.193.252.375.474.545.223.164.528.334.914.51.762.322 1.442.656 2.04 1.002.597.345 1.066.77 1.406 1.274.345.498.518 1.143.518 1.934 0 .761-.179 1.412-.536 1.951-.357.533-.855.94-1.494 1.222-.639.281-1.377.421-2.215.421a6.591 6.591 0 0 1-1.679-.219 4.607 4.607 0 0 1-1.511-.712 3.572 3.572 0 0 1-1.081-1.327c-.27-.551-.405-1.228-.405-2.031h2.962c0 .393.047.721.14.985.094.263.22.474.379.633.164.152.348.263.553.334.206.064.42.096.642.096.299 0 .542-.058.73-.176a1.1 1.1 0 0 0 .413-.483 1.61 1.61 0 0 0 .14-.677Zm11.1-9.404v12.797h-2.962v-9.457l-2.918.852v-2.25l5.607-1.942h.273Zm6.416 7.093-2.356-.554.774-6.539h7.48v2.303h-5.063l-.29 2.54c.14-.082.378-.179.712-.29.34-.117.715-.176 1.125-.176.632 0 1.192.097 1.678.29a3.24 3.24 0 0 1 1.248.835c.34.363.595.812.765 1.345.176.533.264 1.142.264 1.828 0 .551-.091 1.084-.273 1.599a3.89 3.89 0 0 1-2.197 2.347c-.557.235-1.216.352-1.978.352a5.32 5.32 0 0 1-1.66-.264 4.939 4.939 0 0 1-1.46-.756 3.79 3.79 0 0 1-1.02-1.204 3.332 3.332 0 0 1-.36-1.591h2.98c.017.311.09.58.22.809.129.228.301.407.518.536.223.123.478.185.765.185.293 0 .536-.059.73-.176a1.25 1.25 0 0 0 .456-.484 2.31 2.31 0 0 0 .238-.703c.047-.269.07-.553.07-.852a3.17 3.17 0 0 0-.105-.853 1.6 1.6 0 0 0-.317-.641 1.373 1.373 0 0 0-.571-.414 2.19 2.19 0 0 0-.826-.14c-.428 0-.765.073-1.011.22-.246.146-.425.295-.536.448Zm8.147 4.315c0-.422.153-.773.457-1.054.305-.288.698-.431 1.178-.431.486 0 .879.143 1.178.431.304.281.457.632.457 1.054 0 .422-.153.777-.457 1.064-.3.281-.692.422-1.178.422-.48 0-.873-.141-1.178-.422a1.404 1.404 0 0 1-.457-1.064Zm11.769-11.408v12.797h-2.962v-9.457l-2.918.852v-2.25l5.607-1.942h.273Zm12.77 9.273c0 .814-.193 1.497-.58 2.047-.38.551-.908.964-1.582 1.24-.668.275-1.43.413-2.285.413-.85 0-1.614-.138-2.294-.413-.674-.276-1.207-.689-1.6-1.24-.392-.55-.588-1.233-.588-2.047 0-.557.111-1.055.334-1.495a3.33 3.33 0 0 1 .949-1.133 4.392 4.392 0 0 1 1.415-.712 6.104 6.104 0 0 1 1.767-.246c.855 0 1.62.146 2.293.439.674.287 1.204.697 1.591 1.23.387.534.58 1.172.58 1.917Zm-2.98-.238c0-.351-.06-.647-.184-.887a1.303 1.303 0 0 0-.518-.563 1.533 1.533 0 0 0-.782-.193c-.293 0-.554.064-.783.193a1.358 1.358 0 0 0-.527.563c-.123.24-.185.536-.185.887 0 .34.065.636.194.888.129.246.304.436.527.571.229.129.492.194.791.194.299 0 .557-.065.773-.194.223-.135.393-.325.51-.571.123-.252.185-.548.185-.888Zm2.717-5.616c0 .668-.18 1.254-.537 1.758-.351.498-.843.887-1.476 1.169-.627.275-1.35.413-2.17.413-.815 0-1.542-.138-2.18-.413-.633-.282-1.132-.671-1.495-1.169-.357-.504-.536-1.09-.536-1.758 0-.785.179-1.444.536-1.978a3.402 3.402 0 0 1 1.494-1.212c.633-.276 1.354-.414 2.163-.414.82 0 1.546.138 2.18.414.632.275 1.127.679 1.484 1.212.358.534.537 1.193.537 1.978Zm-2.962.158a1.98 1.98 0 0 0-.14-.782 1.087 1.087 0 0 0-.414-.51c-.182-.123-.41-.184-.685-.184-.264 0-.487.058-.668.175-.182.118-.32.288-.414.51-.093.217-.14.481-.14.791 0 .305.047.571.14.8.094.229.232.407.413.536.188.129.416.193.686.193.275 0 .501-.064.677-.193.181-.129.316-.307.404-.536.094-.229.14-.495.14-.8Z"/>
  <circle cx="283.335" cy="52.566" r="19.453" fill="#667080"/>
  <path fill="#fff" d="m283.335 47.608-1.419-1.472a5.107 5.107 0 0 0-3.678-1.58c-2.873 0-5.201 2.415-5.201 5.395a5.5 5.5 0 0 0 1.523 3.814l8.775 9.1 3.433-3.56 5.343-5.54a5.499 5.499 0 0 0 1.523-3.815c0-2.979-2.329-5.394-5.202-5.394a5.11 5.11 0 0 0-3.678 1.58l-1.419 1.472Z"/>
  <circle cx="283.335" cy="52.566" r="19.453" fill="#667080"/>
  <path fill="#fff" d="m283.335 47.608-1.419-1.472a5.107 5.107 0 0 0-3.678-1.58c-2.873 0-5.201 2.415-5.201 5.395a5.5 5.5 0 0 0 1.523 3.814l8.775 9.1 3.433-3.56 5.343-5.54a5.499 5.499 0 0 0 1.523-3.815c0-2.979-2.329-5.394-5.202-5.394a5.11 5.11 0 0 0-3.678 1.58l-1.419 1.472Z"/>
  <defs>
    <filter id="b" width="338.297" height="389.791" x=".9" y=".627" color-interpolation-filters="sRGB" filterUnits="userSpaceOnUse">
      <feFlood flood-opacity="0" result="BackgroundImageFix"/>
      <feColorMatrix in="SourceAlpha" result="hardAlpha" values="0 0 0 0 0 0 0 0 0 0 0 0 0 0 0 0 0 0 127 0"/>
      <feOffset dy="4"/>
      <feGaussianBlur stdDeviation="9.05"/>
      <feComposite in2="hardAlpha" operator="out"/>
      <feColorMatrix values="0 0 0 0 0.831373 0 0 0 0 0.988235 0 0 0 0 0.831373 0 0 0 1 0"/>
      <feBlend in2="BackgroundImageFix" result="effect1_dropShadow_4306_3664"/>
      <feBlend in="SourceGraphic" in2="effect1_dropShadow_4306_3664" result="shape"/>
    </filter>
    <filter id="c" width="209.981" height="44.948" x="27.288" y="267.266" color-interpolation-filters="sRGB" filterUnits="userSpaceOnUse">
      <feFlood flood-opacity="0" result="BackgroundImageFix"/>
      <feColorMatrix in="SourceAlpha" result="hardAlpha" values="0 0 0 0 0 0 0 0 0 0 0 0 0 0 0 0 0 0 127 0"/>
      <feOffset/>
      <feGaussianBlur stdDeviation="7.95"/>
      <feComposite in2="hardAlpha" operator="out"/>
      <feColorMatrix values="0 0 0 0 0.658824 0 0 0 0 1 0 0 0 0 0 0 0 0 1 0"/>
      <feBlend in2="BackgroundImageFix" result="effect1_dropShadow_4306_3664"/>
      <feBlend in="SourceGraphic" in2="effect1_dropShadow_4306_3664" result="shape"/>
    </filter>
    <linearGradient id="a" x1="170.05" x2="170.05" y1="14.727" y2="368.317" gradientUnits="userSpaceOnUse">
      <stop stop-color="#CBCBCB"/>
      <stop offset=".415" stop-color="#fff"/>
    </linearGradient>
  </defs>
</svg>
