<svg width="65" height="144" viewBox="0 0 65 144" fill="none" xmlns="http://www.w3.org/2000/svg">
<rect width="65" height="144" rx="15" fill="#FF4D4F"/>
<path d="M40.3571 64.6667H35.2143V64C35.2137 63.4697 35.0104 62.9614 34.6488 62.5864C34.2872 62.2115 33.797 62.0006 33.2857 62H30.7143C30.203 62.0006 29.7128 62.2115 29.3512 62.5864C28.9896 62.9614 28.7863 63.4697 28.7857 64V64.6667H23.6429C23.4724 64.6667 23.3088 64.7369 23.1883 64.8619C23.0677 64.987 23 65.1565 23 65.3333C23 65.5101 23.0677 65.6797 23.1883 65.8047C23.3088 65.9298 23.4724 66 23.6429 66H24.98L26.1182 80.166C26.1609 80.6649 26.3816 81.1294 26.737 81.4686C27.0924 81.8078 27.557 81.9972 28.04 82H35.96C36.4431 81.9973 36.9078 81.8079 37.2633 81.4687C37.6188 81.1295 37.8394 80.665 37.8821 80.166L39.02 66H40.3571C40.5276 66 40.6912 65.9298 40.8117 65.8047C40.9323 65.6797 41 65.5101 41 65.3333C41 65.1565 40.9323 64.987 40.8117 64.8619C40.6912 64.7369 40.5276 64.6667 40.3571 64.6667ZM30.0714 64C30.0716 63.8233 30.1395 63.6538 30.26 63.5288C30.3805 63.4039 30.5439 63.3336 30.7143 63.3333H33.2857C33.4561 63.3336 33.6195 63.4039 33.74 63.5288C33.8605 63.6538 33.9284 63.8233 33.9286 64V64.6667H30.0714V64ZM36.6005 80.0553C36.5862 80.2216 36.5127 80.3764 36.3943 80.4895C36.2758 80.6025 36.121 80.6657 35.96 80.6667H28.04C27.879 80.6658 27.7241 80.6026 27.6056 80.4896C27.4871 80.3765 27.4136 80.2217 27.3994 80.0553L26.2702 66H37.7298L36.6005 80.0553Z" fill="white" stroke="url(#paint0_linear_4310_4172)" stroke-width="0.5"/>
<path d="M30.0718 68.666C29.9013 68.666 29.7378 68.7363 29.6172 68.8613C29.4967 68.9863 29.429 69.1559 29.429 69.3327V77.3327C29.429 77.5095 29.4967 77.6791 29.6172 77.8041C29.7378 77.9291 29.9013 77.9993 30.0718 77.9993C30.2423 77.9993 30.4058 77.9291 30.5264 77.8041C30.6469 77.6791 30.7147 77.5095 30.7147 77.3327V69.3327C30.7147 69.1559 30.6469 68.9863 30.5264 68.8613C30.4058 68.7363 30.2423 68.666 30.0718 68.666Z" fill="white" stroke="url(#paint1_linear_4310_4172)" stroke-width="0.5"/>
<path d="M33.929 68.666C33.7585 68.666 33.595 68.7363 33.4744 68.8613C33.3539 68.9863 33.2861 69.1559 33.2861 69.3327V77.3327C33.2861 77.5095 33.3539 77.6791 33.4744 77.8041C33.595 77.9291 33.7585 77.9993 33.929 77.9993C34.0995 77.9993 34.263 77.9291 34.3836 77.8041C34.5041 77.6791 34.5718 77.5095 34.5718 77.3327V69.3327C34.5718 69.1559 34.5041 68.9863 34.3836 68.8613C34.263 68.7363 34.0995 68.666 33.929 68.666Z" fill="white" stroke="url(#paint2_linear_4310_4172)" stroke-width="0.5"/>
<defs>
<linearGradient id="paint0_linear_4310_4172" x1="32" y1="62" x2="32" y2="82" gradientUnits="userSpaceOnUse">
<stop stop-color="#CBCBCB"/>
<stop offset="0.415" stop-color="white"/>
</linearGradient>
<linearGradient id="paint1_linear_4310_4172" x1="30.0718" y1="68.666" x2="30.0718" y2="77.9993" gradientUnits="userSpaceOnUse">
<stop stop-color="#CBCBCB"/>
<stop offset="0.415" stop-color="white"/>
</linearGradient>
<linearGradient id="paint2_linear_4310_4172" x1="33.929" y1="68.666" x2="33.929" y2="77.9993" gradientUnits="userSpaceOnUse">
<stop stop-color="#CBCBCB"/>
<stop offset="0.415" stop-color="white"/>
</linearGradient>
</defs>
</svg>
