<svg xmlns="http://www.w3.org/2000/svg" width="428" height="238" fill="none" viewBox="0 0 428 238">
  <g filter="url(#a)">
    <rect width="383.34" height="157.91" x="24" fill="url(#b)" rx="18.31"/>
    <path stroke="#667080" stroke-linecap="round" stroke-linejoin="round" stroke-width="2" d="M223 69h-14a2 2 0 0 0-2 2v14a2 2 0 0 0 2 2h14a2 2 0 0 0 2-2V71a2 2 0 0 0-2-2Z"/>
    <path stroke="#667080" stroke-linecap="round" stroke-linejoin="round" stroke-width="2" d="M212.5 76a1.5 1.5 0 1 0 0-3 1.5 1.5 0 0 0 0 3Zm12.5 5-5-5-11 11"/>
  </g>
  <defs>
    <linearGradient id="b" x1="215.67" x2="215.67" y1="0" y2="157.91" gradientUnits="userSpaceOnUse">
      <stop stop-color="#CBCBCB"/>
      <stop offset=".415" stop-color="#fff"/>
    </linearGradient>
    <filter id="a" width="463.34" height="237.91" x="-16" y="0" color-interpolation-filters="sRGB" filterUnits="userSpaceOnUse">
      <feFlood flood-opacity="0" result="BackgroundImageFix"/>
      <feColorMatrix in="SourceAlpha" result="hardAlpha" values="0 0 0 0 0 0 0 0 0 0 0 0 0 0 0 0 0 0 127 0"/>
      <feOffset dy="40"/>
      <feGaussianBlur stdDeviation="20"/>
      <feComposite in2="hardAlpha" operator="out"/>
      <feColorMatrix values="0 0 0 0 0 0 0 0 0 0 0 0 0 0 0 0 0 0 0.1 0"/>
      <feBlend in2="BackgroundImageFix" result="effect1_dropShadow_4306_3691"/>
      <feBlend in="SourceGraphic" in2="effect1_dropShadow_4306_3691" result="shape"/>
    </filter>
  </defs>
</svg>
