<svg xmlns="http://www.w3.org/2000/svg" width="375" height="44" fill="none" viewBox="0 0 375 44">
  <g filter="url(#a)">
    <rect width="21" height="10.333" x="336.834" y="18.5" stroke="#000" opacity=".35" rx="2.167"/>
    <path fill="#000" d="M359.334 21.667v4a2.17 2.17 0 0 0 0-4Z" opacity=".4"/>
    <rect width="18" height="7.333" x="338.334" y="20" fill="#000" rx="1.333"/>
    <path fill="#000" fill-rule="evenodd" d="M323.667 20.285a8.68 8.68 0 0 1 5.977 2.385.31.31 0 0 0 .435-.003l1.16-1.17a.321.321 0 0 0-.002-.457 10.946 10.946 0 0 0-15.14 0 .322.322 0 0 0-.003.457l1.161 1.17c.119.12.313.122.435.003a8.677 8.677 0 0 1 5.977-2.386Zm0 3.807c1.222 0 2.401.454 3.307 1.274a.312.312 0 0 0 .435-.006l1.16-1.17a.325.325 0 0 0-.005-.46 7.192 7.192 0 0 0-9.791 0 .321.321 0 0 0-.005.46l1.159 1.17c.12.12.313.122.435.006a4.932 4.932 0 0 1 3.305-1.274Zm2.322 2.562a.314.314 0 0 1-.094.231l-2.005 2.022a.314.314 0 0 1-.445 0l-2.006-2.022a.314.314 0 0 1 .01-.458 3.438 3.438 0 0 1 4.437 0c.064.058.102.14.103.227ZM310 18h-1a1 1 0 0 0-1 1v8.667a1 1 0 0 0 1 1h1a1 1 0 0 0 1-1V19a1 1 0 0 0-1-1Zm-5.667 2.333h1a1 1 0 0 1 1 1v6.334a1 1 0 0 1-1 1h-1a1 1 0 0 1-1-1v-6.334a1 1 0 0 1 1-1Zm-3.666 2.334h-1a1 1 0 0 0-1 1v4a1 1 0 0 0 1 1h1a1 1 0 0 0 1-1v-4a1 1 0 0 0-1-1Zm-4.667 2h-1a1 1 0 0 0-1 1v2a1 1 0 0 0 1 1h1a1 1 0 0 0 1-1v-2a1 1 0 0 0-1-1Z" clip-rule="evenodd"/>
    <path fill="#000" d="M33.992 26.466c.04.727.32 1.23.843 1.509.268.146.57.22.908.22.63 0 1.167-.262 1.611-.784.444-.528.76-1.595.945-3.201-.293.464-.657.791-1.091.981-.43.186-.894.279-1.392.279-1.01 0-1.812-.315-2.402-.945-.586-.63-.88-1.44-.88-2.432 0-.952.291-1.79.872-2.512.581-.723 1.438-1.084 2.571-1.084 1.528 0 2.583.689 3.164 2.066.322.756.483 1.704.483 2.841 0 1.285-.192 2.422-.578 3.413-.64 1.65-1.724 2.476-3.252 2.476-1.025 0-1.804-.269-2.336-.806-.533-.537-.799-1.21-.799-2.021h1.333Zm2-2.154c.522 0 .998-.17 1.428-.512.434-.347.652-.95.652-1.81 0-.77-.196-1.345-.586-1.72-.386-.381-.88-.572-1.48-.572-.644 0-1.157.218-1.538.652-.376.43-.564 1.006-.564 1.729 0 .683.166 1.228.498 1.633.332.4.862.6 1.59.6Zm5.78-3.054h1.531v1.597h-1.53v-1.597Zm0 6.145h1.531V29h-1.53v-1.597Zm7.23-2.116v-4.754l-3.36 4.754h3.36ZM49.026 29v-2.564h-4.6v-1.288l4.805-6.666h1.113v6.805h1.546v1.15h-1.546V29h-1.318Zm4.565-7.427v-1.01c.952-.093 1.616-.247 1.992-.462.376-.22.657-.735.842-1.545h1.04V29h-1.406v-7.427H53.59Z"/>
  </g>
  <defs>
    <filter id="a" width="383" height="52" x="-4" y="0" color-interpolation-filters="sRGB" filterUnits="userSpaceOnUse">
      <feFlood flood-opacity="0" result="BackgroundImageFix"/>
      <feColorMatrix in="SourceAlpha" result="hardAlpha" values="0 0 0 0 0 0 0 0 0 0 0 0 0 0 0 0 0 0 127 0"/>
      <feOffset dy="4"/>
      <feGaussianBlur stdDeviation="2"/>
      <feComposite in2="hardAlpha" operator="out"/>
      <feColorMatrix values="0 0 0 0 0 0 0 0 0 0 0 0 0 0 0 0 0 0 0.4 0"/>
      <feBlend in2="BackgroundImageFix" result="effect1_dropShadow_4306_3696"/>
      <feBlend in="SourceGraphic" in2="effect1_dropShadow_4306_3696" result="shape"/>
    </filter>
  </defs>
</svg>
