<svg width="25" height="25" viewBox="0 0 25 25" fill="none" xmlns="http://www.w3.org/2000/svg">
<g clip-path="url(#clip0_4306_3713)">
<path d="M7.2915 18.75C6.14567 18.75 5.21859 19.6875 5.21859 20.8334C5.21859 21.9792 6.14567 22.9167 7.2915 22.9167C8.43734 22.9167 9.37484 21.9792 9.37484 20.8334C9.37484 19.6875 8.43734 18.75 7.2915 18.75ZM1.0415 2.08337V4.16671H3.12484L6.87484 12.073L5.46859 14.625C5.30192 14.9167 5.20817 15.2605 5.20817 15.625C5.20817 16.7709 6.14567 17.7084 7.2915 17.7084H19.7915V15.625H7.729C7.58317 15.625 7.46859 15.5105 7.46859 15.3646L7.49984 15.2396L8.43734 13.5417H16.1978C16.979 13.5417 17.6665 13.1146 18.0207 12.4688L21.7498 5.70837C21.8332 5.56254 21.8748 5.38546 21.8748 5.20837C21.8748 4.63546 21.4061 4.16671 20.8332 4.16671H5.42692L4.44775 2.08337H1.0415ZM17.7082 18.75C16.5623 18.75 15.6353 19.6875 15.6353 20.8334C15.6353 21.9792 16.5623 22.9167 17.7082 22.9167C18.854 22.9167 19.7915 21.9792 19.7915 20.8334C19.7915 19.6875 18.854 18.75 17.7082 18.75Z" fill="#953FD3"/>
</g>
<defs>
<clipPath id="clip0_4306_3713">
<rect width="25" height="25" fill="white"/>
</clipPath>
</defs>
</svg>
