<svg xmlns="http://www.w3.org/2000/svg" width="375" height="83" fill="none" viewBox="0 0 375 83">
  <rect width="374.19" height="108.71" y=".131" fill="#fff" rx="18.31"/>
  <path stroke="#667080" stroke-linecap="round" stroke-linejoin="round" stroke-width="2" d="M194 44.13h-14a2 2 0 0 0-2 2v14a2 2 0 0 0 2 2h14a2 2 0 0 0 2-2v-14a2 2 0 0 0-2-2Z"/>
  <path stroke="#667080" stroke-linecap="round" stroke-linejoin="round" stroke-width="2" d="M183.5 51.13a1.5 1.5 0 1 0 0-3 1.5 1.5 0 0 0 0 3Zm12.5 5-5-5-11 11"/>
</svg>
